# xmcd
# Track frame offsets:
# 150
# 9047
# 22274
# 34686
# 47549
# 60239
# 71675
# 82147
# 93623
# 106294
# 118005
# 129833
# 142425
# 153865
# 166310
# 177443
# 191007
# 204444
# 216891
# 228057
# 240344
# 254008
# 266716
# 278319
# 290284
# 300292
# 313772
# 323290
# 334258
# 345965
#
# Disc length: 4756 seconds
# Revision: 0
# Processed by: cddbd v1.5.2PL0 Copyright (c) Steve Scherf et al.
# Submitted via: VisiTrax 2.10.3.257 - For more info visit www.synapsa.com
#
DISCID=9b12921e
DTITLE=Bobby Bare - The All-American Boy - Disc 3
DYEAR=1993
DGENRE=Country
TTITLE0=Long Way To Tennessee 1964
TTITLE1=Long Black Limousine 1964
TTITLE2=Down In Mexico 1964
TTITLE3=I Was Coming Home To You 1994
TTITLE4=Another Bridge To Burn 1964
TTITLE5=I've Lived A Lot In My Time 1964
TTITLE6=He Was A Freind Of Mine 1964
TTITLE7=Take Me Home 1964
TTITLE8=When I'm Gone 1964
TTITLE9=Sweeter Than The Flowers 1964
TTITLE10=I Was Coming Home To You 1964
TTITLE11=Four Stromg Winds1964
TTITLE12=When The Wind Blows In Chicago 1964
TTITLE13=Just To Satisfy You 1964
TTITLE14=Let It Be Me (& Skeeter Davis) 1964
TTITLE15=In The Misty Moonlight (& Skeeter Davis) 1964
TTITLE16=I Love You (& Skeeter Davis) 1964
TTITLE17=Too Used To being With You (& Skeeter Davis) 1964
TTITLE18=Together Again (& Skeeter Davis) 1964
TTITLE19=We'll Sing In The Sunshine (& Skeeter Davis) 1964
TTITLE20=Out Of Our Minds (& Skeeter Davis) 1964
TTITLE21=I Don't Care (& Skeeter Davis) 1964
TTITLE22=That's All I Want From You (& Skeeter Davis) 1964
TTITLE23=Invisible Tears (& Skeeter Davis) 1964
TTITLE24=A Dear John Letter (& Skeeter Davis) 1964
TTITLE25=True Love (& Skeeter Davis) 1964
TTITLE26=Rosalie (German) 1969
TTITLE27=Alle Glauben Dass Iss Gluklich 1969
TTITLE28=Times Are Gettin' Hard 1969
TTITLE29=I'm A Long Way From Home 1969
EXTD=
EXTT0=
EXTT1=
EXTT2=
EXTT3=
EXTT4=
EXTT5=
EXTT6=
EXTT7=
EXTT8=
EXTT9=
EXTT10=
EXTT11=
EXTT12=
EXTT13=
EXTT14=
EXTT15=
EXTT16=
EXTT17=
EXTT18=
EXTT19=
EXTT20=
EXTT21=
EXTT22=
EXTT23=
EXTT24=
EXTT25=
EXTT26=
EXTT27=
EXTT28=
EXTT29=
PLAYORDER=
